<svg width="1440" height="1024" viewBox="0 0 1440 1024" fill="none" xmlns="http://www.w3.org/2000/svg">
<g clip-path="url(#clip0_8349_224)">
<path d="M1137.37 1424C1136.59 1400.27 1138.53 1376.55 1143.2 1353.21L1143.59 1352.43V1352.04C1160.7 1267.64 1209.32 1195.69 1280.89 1148.23C1352.84 1101.17 1438.41 1084.45 1522.42 1102.34H1523.98C1566.37 1110.9 1608.77 1114.79 1651.55 1114.01C1658.55 1114.01 1664 1108.17 1664 1101.17L1663.61 1031.16C1663.61 1024.16 1657.78 1018.33 1650.78 1018.72C1614.99 1019.49 1578.82 1015.99 1543.43 1008.99C1542.65 1008.6 1542.26 1008.6 1541.09 1008.6C1541.09 1008.6 1541.09 1008.6 1540.7 1008.6C1540.7 1008.6 1540.7 1008.6 1540.31 1008.6C1444.25 988.767 1356.73 942.093 1288.28 873.25C1264.16 849.524 1242.38 822.687 1223.71 793.905C1201.54 760.455 1203.49 716.893 1226.82 684.222C1229.94 679.554 1233.83 674.498 1236.94 669.831C1241.22 663.219 1250.94 664.386 1253.66 671.387C1264.16 697.835 1277.78 723.505 1293.33 748.009C1354.79 840.967 1448.91 904.754 1558.21 926.535L1559.37 926.924C1589.32 932.759 1619.66 935.481 1650 934.703C1657 934.703 1662.44 928.869 1662.44 921.868L1662.06 851.858C1662.06 844.468 1656.22 839.022 1648.83 839.022C1625.11 839.8 1601.38 837.856 1577.65 832.799L1576.49 832.41C1492.09 815.297 1420.13 766.678 1372.68 695.112C1326.01 623.546 1309.28 537.589 1326.78 453.577L1327.17 452.799V452.41C1335.73 410.015 1339.62 367.619 1338.84 324.446C1338.84 317.445 1333.01 312 1326.01 312H1256.77C1249.77 312 1243.94 317.834 1244.33 324.835C1245.1 361.007 1241.6 397.179 1234.6 432.962V433.351V433.74C1215.16 530.199 1168.09 617.712 1099.25 686.944C1075.52 711.059 1049.08 732.451 1020.29 751.51C1019.9 751.51 1019.9 751.898 1019.52 751.898C986.455 774.068 942.504 771.735 910.222 748.398C905.554 745.286 900.498 741.397 895.831 738.285C889.219 734.007 890.386 724.283 897.387 721.561C923.835 711.059 949.505 697.446 974.009 681.888C1066.58 620.824 1130.37 527.476 1152.15 418.571C1152.54 417.793 1152.54 416.627 1152.54 415.46C1158.37 385.9 1160.7 355.562 1159.93 325.224C1159.93 318.223 1154.09 312.778 1147.09 312.778L1077.08 313.167C1069.69 313.167 1064.24 319.001 1064.24 326.391C1065.02 350.117 1063.08 373.842 1058.41 397.179V398.735C1041.3 483.136 992.678 555.092 921.112 602.543C849.546 649.606 764.367 665.941 679.965 648.439L678.021 648.05C635.626 639.493 593.23 635.603 550.446 636.381C543.445 636.381 538 642.216 538 649.217L538.389 719.227C538.389 726.228 544.223 731.673 551.224 731.673C587.007 730.895 623.179 734.396 658.573 741.397C659.351 741.786 659.74 741.786 660.907 741.786C660.907 741.786 660.907 741.786 661.296 741.786C757.366 761.622 844.879 808.296 913.722 877.139C937.837 900.865 959.618 927.702 978.287 956.484C1000.46 989.934 998.513 1033.5 975.176 1066.17C972.064 1070.83 968.175 1075.89 965.063 1080.56C960.785 1087.17 951.061 1086 948.339 1079C937.837 1052.55 924.224 1026.88 908.666 1002.38C847.212 909.422 753.476 846.024 644.182 823.854L643.016 823.465H642.627C612.678 817.63 582.34 814.908 552.002 815.686C545.001 815.686 539.556 821.52 539.556 828.521L539.945 898.531C539.945 905.921 545.779 911.367 553.169 911.367C576.895 910.589 600.62 912.533 623.957 917.201L624.735 917.59H625.124C709.525 934.703 781.48 983.322 828.932 1054.89C875.994 1126.84 892.719 1212.41 874.828 1296.42V1297.98C866.271 1340.37 862.381 1382.77 863.159 1425.55C863.159 1432.55 868.993 1438 875.994 1438L946.005 1437.61C953.006 1437.61 958.84 1431.78 958.451 1424.78C957.673 1388.6 961.174 1352.43 967.786 1317.04C967.786 1316.65 968.175 1316.26 968.175 1315.87V1315.48C987.622 1219.02 1034.68 1131.9 1103.53 1063.06C1127.25 1038.94 1153.7 1017.55 1182.48 998.491C1182.87 998.491 1182.87 998.102 1183.26 998.102C1216.32 975.932 1260.27 978.265 1292.56 1001.6C1297.22 1004.71 1302.28 1008.6 1306.95 1011.71C1313.56 1015.99 1312.39 1025.72 1305.39 1028.44C1278.94 1038.94 1253.27 1052.55 1228.77 1068.11C1135.81 1129.57 1072.41 1223.3 1050.24 1332.6V1332.98L1049.85 1333.76V1334.15C1044.02 1364.1 1041.3 1394.44 1042.07 1424.78C1042.07 1431.78 1047.91 1437.22 1054.91 1437.22L1124.92 1436.83C1131.92 1436.83 1137.76 1431 1137.37 1424ZM1058.02 904.365C1057.63 903.977 1057.24 903.199 1056.85 902.81C1041.3 879.084 1047.91 847.579 1071.63 832.021C1072.02 832.021 1072.02 832.021 1072.02 831.632C1072.41 831.632 1072.41 831.632 1072.41 831.244C1096.14 815.686 1128.03 822.298 1143.59 845.635C1143.59 846.023 1143.59 846.024 1143.98 846.024C1143.98 846.412 1143.98 846.412 1144.37 846.412C1159.93 870.138 1153.31 902.032 1129.98 917.59C1129.59 917.59 1129.59 917.59 1129.59 917.979C1129.2 917.979 1129.2 917.979 1129.2 918.368C1105.47 933.925 1073.97 928.091 1058.02 904.365Z" fill="#1A1A1A"/>
</g>
<defs>
<clipPath id="clip0_8349_224">
<rect width="1440" height="1024" fill="white"/>
</clipPath>
</defs>
</svg>
