<svg width="1440" height="1024" viewBox="0 0 1440 1024" fill="none" xmlns="http://www.w3.org/2000/svg">
<g clip-path="url(#clip0_8349_211)">
<path d="M779.1 761.304L595.113 758.201C587.977 758.201 582.703 764.096 583.013 770.612C587.357 840.732 607.214 906.198 639.792 964.217C642.894 969.492 649.099 971.974 654.684 969.492L833.087 893.167C844.566 888.202 858.218 889.133 868.767 896.58C882.419 906.508 886.762 925.124 879.937 939.706L797.096 1116.56C794.614 1121.83 796.475 1128.66 801.75 1131.76C858.528 1165.89 923.374 1188.23 993.183 1195.05C1000.01 1195.68 1005.9 1190.4 1006.21 1183.26L1009.32 999.277C1011.18 869.897 908.481 763.476 779.1 761.304Z" fill="#1A1A1A"/>
<path d="M1017.69 486.1L1020.8 302.113C1020.8 294.977 1014.9 289.703 1008.39 290.013C938.266 294.357 872.8 314.214 814.781 346.792C809.506 349.894 807.024 356.099 809.506 361.684L885.831 540.087C890.796 551.566 889.865 565.218 882.419 575.767C872.49 589.419 854.184 593.762 839.292 586.937L662.751 503.786C657.476 501.304 650.651 503.165 647.548 508.44C613.419 565.218 591.08 630.063 584.254 699.873C583.633 706.699 588.908 712.594 596.044 712.904L780.031 716.007C909.101 718.179 1015.52 615.481 1017.69 486.1Z" fill="#1A1A1A"/>
<path d="M1292.9 724.695L1476.89 727.798C1484.02 727.798 1489.3 721.903 1488.99 715.387C1484.64 645.267 1464.79 579.801 1432.21 521.782C1429.11 516.507 1422.9 514.025 1417.32 516.507L1238.91 592.833C1227.43 597.797 1213.78 596.866 1203.23 589.42C1189.58 579.491 1185.24 561.185 1192.06 546.293L1274.9 370.062C1277.39 364.788 1275.52 357.962 1270.25 354.859C1213.78 320.42 1148.63 298.081 1078.82 291.565C1071.99 290.945 1066.1 296.219 1065.79 303.355L1062.68 487.342C1060.82 616.102 1163.52 722.523 1292.9 724.695Z" fill="#1A1A1A"/>
<path d="M1185.55 944.98C1179.03 929.777 1183.69 911.781 1198.27 902.163C1208.82 894.717 1222.47 894.406 1233.95 899.991L1409.56 982.211C1414.83 984.694 1421.66 982.832 1424.76 977.557C1458.89 920.779 1481.23 855.934 1487.75 786.124C1488.37 779.298 1483.09 773.403 1475.96 773.093L1291.97 769.99C1162.59 767.818 1056.17 870.516 1054 999.897L1050.89 1183.88C1050.89 1191.02 1056.79 1196.29 1063.3 1195.98C1133.42 1191.64 1198.89 1171.78 1256.91 1139.21C1262.18 1136.1 1264.67 1129.9 1262.18 1124.31L1185.55 944.98Z" fill="#1A1A1A"/>
</g>
<defs>
<clipPath id="clip0_8349_211">
<rect width="1440" height="1024" fill="white"/>
</clipPath>
</defs>
</svg>
