<?xml version="1.0" encoding="UTF-8" standalone="no"?>
<!-- Created with Inkscape (http://www.inkscape.org/) -->

<svg
   width="18.386347mm"
   height="18.308647mm"
   viewBox="0 0 18.386347 18.308647"
   version="1.1"
   id="svg1"
   xml:space="preserve"
   inkscape:export-filename="gasolina-mamuth.png"
   inkscape:export-xdpi="96"
   inkscape:export-ydpi="96"
   inkscape:version="1.4.2 (f4327f4, 2025-05-13)"
   sodipodi:docname="rascunho-imagem-produtos-eletricos-combustao.svg"
   xmlns:inkscape="http://www.inkscape.org/namespaces/inkscape"
   xmlns:sodipodi="http://sodipodi.sourceforge.net/DTD/sodipodi-0.dtd"
   xmlns="http://www.w3.org/2000/svg"
   xmlns:svg="http://www.w3.org/2000/svg"><sodipodi:namedview
     id="namedview1"
     pagecolor="#ffffff"
     bordercolor="#000000"
     borderopacity="0.25"
     inkscape:showpageshadow="2"
     inkscape:pageopacity="0.0"
     inkscape:pagecheckerboard="0"
     inkscape:deskcolor="#d1d1d1"
     inkscape:document-units="mm"
     inkscape:zoom="0.70710678"
     inkscape:cx="53.033008"
     inkscape:cy="123.74369"
     inkscape:window-width="1920"
     inkscape:window-height="1009"
     inkscape:window-x="1912"
     inkscape:window-y="-8"
     inkscape:window-maximized="1"
     inkscape:current-layer="layer1"><inkscape:page
       x="0"
       y="0"
       width="18.386347"
       height="18.308647"
       id="page2"
       margin="0"
       bleed="0" /></sodipodi:namedview><defs
     id="defs1"><linearGradient
       id="swatch1"
       inkscape:swatch="solid"><stop
         style="stop-color:#000000;stop-opacity:1;"
         offset="0"
         id="stop1" /></linearGradient></defs><g
     inkscape:label="Camada 1"
     inkscape:groupmode="layer"
     id="layer1"
     transform="translate(33.714924,-114.09877)"
     style="display:inline"><path
       style="display:inline;fill:#ff7424;fill-opacity:1;stroke-width:0.140891"
       d="m -22.437563,132.39245 c -0.406742,-0.0663 -0.810695,-0.37446 -0.977208,-0.7455 -0.0713,-0.15887 -0.35675,-1.57984 -1.244049,-6.19284 -0.63333,-3.29265 -1.151504,-5.99601 -1.151504,-6.00744 0,-0.0115 -0.0472,-0.0745 -0.10486,-0.14022 l -0.104859,-0.11943 0.610594,-0.65432 c 0.335822,-0.35987 0.625736,-0.65431 0.644237,-0.65431 0.01853,0 0.321954,0.24013 0.674329,0.53364 0.352376,0.2935 0.682512,0.54414 0.733634,0.55697 0.162006,0.0407 0.256971,-0.0315 0.663414,-0.50378 0.53655,-0.62352 0.546334,-0.63175 0.772648,-0.64999 0.165916,-0.0134 0.206398,-0.002 0.332626,0.0913 0.315898,0.23421 3.525609,3.04286 3.588353,3.13998 0.05144,0.0796 0.06345,0.14965 0.05112,0.29822 -0.01413,0.17058 -0.03754,0.21883 -0.192978,0.39712 -0.254913,0.29249 -0.338546,0.41761 -0.338546,0.50649 0,0.0431 0.705049,1.79785 1.56678,3.89941 0.861731,2.10156 1.573997,3.87762 1.582808,3.94678 0.01979,0.15513 -0.08206,0.33191 -0.237479,0.41227 -0.275206,0.14232 -1.780733,0.73748 -1.86523,0.73735 -0.121092,-1.4e-4 -0.311266,-0.11565 -0.366417,-0.2225 -0.08403,-0.16282 -0.186593,-0.24445 -0.307143,-0.24445 -0.07437,0 -0.751774,0.28024 -1.854542,0.76722 -0.955557,0.42196 -1.793321,0.78428 -1.861696,0.80515 -0.185133,0.0565 -0.426822,0.0733 -0.614027,0.0429 z m 1.387954,-1.43422 c 0.414987,-0.18284 0.768148,-0.34514 0.784796,-0.36065 0.03989,-0.0371 -1.45651,-4.47977 -1.603233,-4.75967 -0.138997,-0.26514 -0.484557,-0.61504 -1.018115,-1.0309 l -0.399359,-0.31125 -0.07554,0.13448 c -0.09499,0.16902 -0.185635,0.51202 -0.185635,0.70245 0,0.17759 0.77787,5.34636 0.827822,5.50068 0.04398,0.13585 0.26151,0.35235 0.429719,0.42767 0.231983,0.10387 0.421819,0.0576 1.23959,-0.30281 z m 2.037021,-0.90275 c 0.514593,-0.23218 0.585905,-0.27986 0.619657,-0.41433 0.01578,-0.0627 -0.215468,-0.79676 -0.788683,-2.50347 -0.446038,-1.32805 -0.844737,-2.48469 -0.88602,-2.5703 -0.103886,-0.21549 -0.420319,-0.54734 -0.631492,-0.66229 -0.21579,-0.11744 -0.543915,-0.2061 -0.76225,-0.20594 -0.376774,2.7e-4 -1.205131,0.19712 -1.297426,0.30832 -0.02536,0.0306 0.10526,0.15382 0.465536,0.43908 0.531045,0.42049 0.818847,0.7315 1.011651,1.09324 0.06408,0.12029 0.454173,1.22262 0.866804,2.44962 0.412631,1.227 0.757852,2.25223 0.767158,2.2783 0.02167,0.0605 0.05568,0.0492 0.635065,-0.21223 z m -4.708399,-6.21561 c 0.03989,-0.0214 0.0948,-0.0921 0.122018,-0.15723 0.04602,-0.11018 0.03235,-0.19077 -0.19622,-1.1589 -0.135133,-0.57228 -0.264235,-1.07513 -0.286883,-1.11747 -0.122356,-0.22862 -0.471276,-0.19374 -0.575359,0.0576 -0.03722,0.0898 -0.01005,0.24132 0.210843,1.17814 0.221169,0.93784 0.265224,1.08539 0.345151,1.15591 0.09873,0.0871 0.262397,0.1052 0.38045,0.042 z m -0.801593,-3.07275 c 0.153948,-0.10782 0.162735,-0.20952 0.05544,-0.64209 -0.07562,-0.305 -0.120997,-0.419 -0.19699,-0.49506 -0.136366,-0.13647 -0.291508,-0.13266 -0.434863,0.0107 -0.09596,0.096 -0.107326,0.1282 -0.09189,0.26049 0.03377,0.28963 0.181222,0.75733 0.265178,0.84129 0.09781,0.0978 0.282531,0.10913 0.403097,0.0247 z m -7.82699,3.26715 c -0.173597,-0.0276 -0.522501,-0.16638 -0.666759,-0.26521 -0.420351,-0.28798 -0.698579,-0.80803 -0.698579,-1.30573 0,-0.29595 0.14063,-0.72501 0.422109,-1.28784 0.333584,-0.66701 1.120641,-1.8599 1.227143,-1.8599 0.04492,0 0.494607,0.62016 0.762289,1.05132 0.57265,0.9224 0.858087,1.61617 0.858087,2.08565 0,0.62195 -0.332492,1.15938 -0.892373,1.44243 -0.239773,0.12122 -0.714496,0.18657 -1.011917,0.13928 z m 5.08408,-5.87476 c -0.375471,-0.31691 -0.763506,-0.63025 -0.86232,-0.69634 -0.149189,-0.0998 -0.614803,-0.24834 -2.746498,-0.8763 -2.788198,-0.82137 -2.724071,-0.79665 -2.809793,-1.08279 -0.03447,-0.1151 -0.02254,-0.18992 0.09499,-0.59434 0.154781,-0.53265 0.196637,-0.62606 0.326257,-0.72802 0.201034,-0.15813 0.163434,-0.16654 3.035077,0.67817 1.488699,0.4379 2.748053,0.81771 2.798571,0.84401 0.110584,0.0576 2.126126,1.6926 2.126103,1.72472 -3.2e-5,0.0441 -1.200387,1.31204 -1.239699,1.30958 -0.02199,-7.8e-4 -0.347216,-0.2618 -0.722687,-0.57869 z"
       id="path2-8"
       inkscape:label="combustivel"
       inkscape:export-filename="icon-combustao.png"
       inkscape:export-xdpi="96"
       inkscape:export-ydpi="96" /></g></svg>
