<svg width="402" height="402" viewBox="0 0 402 402" fill="none" xmlns="http://www.w3.org/2000/svg">
<path d="M266.858 267.301C312.365 278.087 362.157 266.562 398.652 232.579C400.868 230.511 401.016 226.965 398.8 224.749L378.114 204.063C376.489 202.438 376.489 199.631 378.114 198.006L399.391 176.729C401.607 174.513 401.607 171.115 399.243 168.899C362.748 135.211 312.956 123.539 267.449 134.177C278.235 88.6697 266.562 38.8775 232.727 2.38294C230.659 0.166667 227.113 0.0189164 224.896 2.23519L204.211 22.9204C202.586 24.5456 199.779 24.5456 198.153 22.9204L176.877 1.64418C174.661 -0.57209 171.263 -0.572089 169.046 1.79193C135.359 38.2865 123.687 88.0787 134.325 133.586C88.8174 122.948 39.0252 134.473 2.53069 168.308C0.314418 170.376 0.166667 173.922 2.38294 176.138L23.0681 196.824C24.6934 198.449 24.6934 201.256 23.0681 202.881L1.64418 224.305C-0.572089 226.522 -0.57209 229.92 1.79193 232.136C38.2865 265.823 88.0787 277.496 133.586 266.858C122.8 312.513 134.473 362.305 168.308 398.652C170.376 400.868 173.922 401.016 176.138 398.8L196.824 378.114C198.449 376.489 201.256 376.489 202.881 378.114L224.305 399.538C226.522 401.755 229.92 401.755 232.136 399.391C265.971 362.748 277.644 312.956 266.858 267.301ZM213.224 187.959C220.168 194.903 220.168 206.28 213.224 213.224C206.28 220.168 194.903 220.168 187.959 213.224C181.014 206.28 181.014 194.903 187.959 187.959C194.903 181.014 206.28 180.866 213.224 187.959ZM365.999 203.916C328.47 235.83 272.916 236.125 235.091 204.507C233.17 202.881 233.023 199.631 235.091 197.858C272.62 165.944 328.174 165.648 365.999 197.267C367.92 199.04 368.067 202.143 365.999 203.916ZM198.006 166.091C166.091 128.563 165.796 73.008 197.415 35.1837C199.04 33.2629 202.29 33.1152 204.063 35.1837C235.978 72.7125 236.273 128.267 204.654 166.091C202.881 168.16 199.631 168.16 198.006 166.091ZM35.3315 197.119C72.8603 165.205 128.415 164.909 166.239 196.528C168.16 198.153 168.308 201.404 166.239 203.177C128.71 235.091 73.1558 235.387 35.3315 203.768C33.4107 201.995 33.2629 198.892 35.3315 197.119ZM203.325 235.091C235.239 272.62 235.534 328.174 203.916 365.999C202.29 367.92 199.04 368.067 197.267 365.999C165.353 328.47 165.057 272.915 196.676 235.091C198.449 232.875 201.552 233.023 203.325 235.091Z" fill="#FF5100"/>
</svg>
