<svg width="428" height="377" viewBox="0 0 428 377" fill="none" xmlns="http://www.w3.org/2000/svg">
<path d="M426.843 72.6936L389.166 7.53531C387.097 3.98928 382.813 2.80727 379.267 4.87579L306.868 46.6894C285.445 59.1005 258.702 43.5866 258.702 18.9122V7.23981C258.702 3.25053 255.451 0 251.462 0H176.256C172.267 0 169.017 3.25053 169.017 7.23981V18.9122C169.017 43.5866 142.274 59.1005 120.85 46.6894L48.4515 4.87579C45.0533 2.80727 40.6207 4.13704 38.5522 7.53531L1.02338 72.6936C-1.04513 76.0919 0.136876 80.5244 3.53516 82.593L75.9333 124.259C97.3572 136.522 97.3572 167.402 75.9333 179.813L65.8862 185.723C62.3402 187.792 61.1581 192.077 63.2267 195.623L100.903 260.781C102.972 264.327 107.257 265.509 110.803 263.441L120.85 257.53C142.274 245.119 169.017 260.633 169.017 285.308V368.935C169.017 372.924 172.267 376.175 176.256 376.175H251.462C255.451 376.175 258.702 372.924 258.702 368.935V285.455C258.702 260.781 285.445 245.267 306.868 257.678L316.916 263.588C320.314 265.657 324.746 264.327 326.815 260.929L364.639 195.77C366.708 192.372 365.378 187.94 361.98 185.871L351.933 179.961C330.509 167.698 330.509 136.818 351.933 124.407L424.331 82.593C427.729 80.5244 428.763 76.0919 426.843 72.6936ZM213.785 207.295C183.496 207.295 159.117 182.768 159.117 152.627C159.117 122.338 183.644 97.9591 213.785 97.9591C243.926 97.9591 268.453 122.486 268.453 152.627C268.453 182.916 244.074 207.295 213.785 207.295Z" fill="#1A1A1A"/>
</svg>
