<svg width="431" height="431" viewBox="0 0 431 431" fill="none" xmlns="http://www.w3.org/2000/svg">
<path d="M430.851 167.993C430.851 168.584 430.851 169.027 430.851 169.618C431.294 125.293 414.007 81.7064 381.65 49.3489C349.588 17.2869 306.74 0 262.858 0H167.558C123.676 0 80.9761 17.2869 48.914 49.2012C16.7043 81.5587 -0.434868 124.998 0.00838589 169.471C0.00838589 168.88 0.00838589 168.436 0.00838589 167.845V263.145C0.00838589 262.554 0.00838589 262.111 0.00838589 261.52C-0.434868 305.845 16.852 349.432 49.2096 381.789C81.5671 414.147 125.006 431.286 169.479 430.99C168.888 430.99 168.445 430.99 167.854 430.99H263.153C262.562 430.99 262.119 430.99 261.528 430.99C305.853 431.434 349.44 414.147 381.798 381.789C414.155 349.432 431.294 305.993 430.999 261.52C430.999 262.111 430.999 262.554 430.999 263.145L430.851 167.993ZM425.827 208.477C426.271 206.704 426.714 205.079 427.009 203.306C426.714 205.079 426.271 206.852 425.827 208.477C425.384 210.25 425.089 211.875 424.941 213.796C425.384 212.023 425.532 210.25 425.827 208.477ZM430.851 171.835C430.851 172.869 430.851 173.755 430.703 174.642C430.703 173.755 430.703 172.869 430.851 171.835ZM430.703 177.154C430.703 178.188 430.556 179.075 430.556 179.961C430.556 179.075 430.703 178.04 430.703 177.154ZM430.408 182.325C430.26 183.212 430.26 184.246 430.112 184.985C430.112 184.246 430.26 183.359 430.408 182.325ZM428.191 198.134C428.044 199.021 427.896 200.055 427.6 200.794C427.748 200.055 428.044 199.021 428.191 198.134ZM110.379 99.7321C118.653 81.1154 130.177 64.4195 144.805 49.7922C162.092 32.5053 182.924 19.2077 205.678 10.9336C211.884 8.56957 218.68 8.56957 225.034 10.9336C247.787 19.2077 268.768 32.5053 285.907 49.7922C300.534 64.4195 312.059 81.1154 320.333 99.7321C321.515 102.244 319.003 104.756 316.492 103.869C286.35 93.822 253.402 92.3445 222.374 100.175C217.794 101.357 213.066 101.357 208.485 100.175C177.458 92.4923 144.509 93.822 114.368 103.869C111.708 104.903 109.197 102.392 110.379 99.7321ZM5.62293 213.796C5.47518 212.023 5.17968 210.25 4.73643 208.477C4.29317 206.704 3.84992 205.079 3.55442 203.306C3.99767 205.079 4.29317 206.704 4.73643 208.477C5.32743 210.25 5.47518 212.023 5.62293 213.796ZM0.156138 174.79C0.156138 173.755 0.00838589 172.869 0.00838589 171.982C0.156137 172.869 0.156138 173.755 0.156138 174.79ZM2.22465 195.475C2.0769 194.588 1.92915 193.702 1.7814 192.815C1.92915 193.85 2.0769 194.736 2.22465 195.475ZM0.747142 185.132C0.599391 184.246 0.599391 183.212 0.45164 182.473C0.599391 183.359 0.747142 184.246 0.747142 185.132ZM0.303889 179.961C0.303889 178.927 0.156138 178.04 0.156138 177.154C0.156138 178.04 0.303889 179.075 0.303889 179.961ZM5.03193 222.661C4.58867 224.434 4.14542 226.059 3.84992 227.832C4.14542 226.059 4.58867 224.286 5.03193 222.661C5.47518 220.888 5.77068 219.263 5.91844 217.342C5.47518 219.115 5.32743 220.888 5.03193 222.661ZM0.00838589 259.303C0.00838589 258.269 0.00838645 257.383 0.156138 256.496C0.156138 257.383 0.156137 258.269 0.00838589 259.303ZM0.156138 253.984C0.156138 252.95 0.303889 252.064 0.303889 251.177C0.303889 252.064 0.156138 253.098 0.156138 253.984ZM0.45164 248.813C0.599391 247.927 0.599391 246.892 0.747142 246.154C0.747142 246.892 0.599391 247.779 0.45164 248.813ZM1.7814 238.175C1.92915 237.288 2.0769 236.402 2.22465 235.515C2.0769 236.55 1.92915 237.288 1.7814 238.175ZM2.66791 233.004C2.81566 232.117 2.96341 231.083 3.25891 230.344C3.11116 231.083 2.81566 232.117 2.66791 233.004ZM100.036 208.477C101.218 213.057 101.218 217.785 100.036 222.366C92.3529 253.393 93.6827 286.342 103.73 316.483C104.616 319.143 101.957 321.507 99.5927 320.325C80.9761 312.051 64.2802 300.526 49.6528 285.899C32.3659 268.612 19.0683 247.779 10.7942 225.025C8.43021 218.82 8.43021 212.023 10.7942 205.67C19.0683 182.916 32.3659 161.935 49.6528 144.796C64.2802 130.169 80.9761 118.644 99.5927 110.37C102.105 109.188 104.616 111.7 103.73 114.212C93.6827 144.796 92.5007 177.449 100.036 208.477ZM208.338 425.967C206.565 426.41 204.939 426.853 203.166 427.149C204.939 426.853 206.712 426.41 208.338 425.967C210.111 425.524 211.736 425.228 213.657 425.08C211.884 425.524 210.111 425.671 208.338 425.967ZM171.695 430.99C172.73 430.99 173.616 430.99 174.503 430.843C173.616 430.843 172.73 430.843 171.695 430.99ZM177.014 430.843C178.049 430.843 178.935 430.695 179.822 430.695C178.935 430.695 177.901 430.843 177.014 430.843ZM182.186 430.547C183.072 430.399 184.106 430.399 184.845 430.252C184.106 430.252 183.22 430.399 182.186 430.547ZM197.995 428.331C198.882 428.183 199.916 428.035 200.655 427.74C199.916 427.888 198.882 428.183 197.995 428.331ZM217.203 425.376C218.976 425.524 220.749 425.819 222.522 426.262C224.295 426.706 225.92 427.149 227.693 427.444C225.92 427.001 224.295 426.706 222.522 426.262C220.749 425.671 218.976 425.524 217.203 425.376ZM256.209 430.843C257.243 430.843 258.13 430.99 259.016 430.99C258.13 430.843 257.243 430.843 256.209 430.843ZM235.524 428.774C236.41 428.922 237.297 429.07 238.183 429.217C237.149 429.07 236.263 428.922 235.524 428.774ZM245.866 430.252C246.753 430.399 247.787 430.399 248.526 430.547C247.639 430.399 246.753 430.252 245.866 430.252ZM251.038 430.695C252.072 430.695 252.959 430.843 253.845 430.843C252.959 430.843 251.924 430.695 251.038 430.695ZM320.481 331.406C312.207 350.023 300.682 366.719 286.055 381.346C268.768 398.633 247.935 411.93 225.181 420.205C218.976 422.569 212.179 422.569 205.826 420.205C183.072 411.93 162.092 398.633 144.952 381.346C130.325 366.719 118.8 349.875 110.526 331.406C109.344 328.894 111.856 326.383 114.368 327.269C144.509 337.464 177.458 338.794 208.485 330.963C213.066 329.781 217.794 329.781 222.374 330.963C253.402 338.794 286.35 337.316 316.492 327.269C319.151 326.235 321.663 328.747 320.481 331.406ZM324.913 225.173C316.639 247.927 303.342 268.907 286.055 286.046C268.768 303.333 247.935 316.631 225.181 324.905C218.976 327.269 212.179 327.269 205.826 324.905C183.072 316.631 162.092 303.333 144.952 286.046C127.665 268.907 114.22 248.074 106.094 225.173C103.73 218.967 103.73 212.171 106.094 205.817C114.368 183.064 127.665 162.083 144.952 144.944C162.239 127.805 183.072 114.359 205.826 106.085C212.031 103.721 218.828 103.721 225.181 106.085C247.935 114.359 268.916 127.657 286.055 144.944C303.342 162.231 316.639 183.064 324.913 205.817C326.982 212.171 326.982 218.967 324.913 225.173ZM420.065 225.173C411.791 247.927 398.494 268.907 381.207 286.046C366.579 300.674 349.883 312.198 331.267 320.472C328.755 321.654 326.243 319.143 327.13 316.631C337.177 286.49 338.654 253.541 330.823 222.513C329.641 217.933 329.641 213.205 330.823 208.625C338.507 177.597 337.177 144.648 327.13 114.507C326.243 111.848 328.903 109.484 331.267 110.666C349.883 118.94 366.579 130.464 381.207 145.092C398.494 162.379 411.791 183.212 420.065 205.965C422.281 212.171 422.281 218.967 420.065 225.173ZM425.236 217.342C425.384 219.115 425.68 220.888 426.123 222.661C426.566 224.434 427.009 226.059 427.305 227.832C426.862 226.059 426.566 224.434 426.123 222.661C425.532 220.888 425.384 219.115 425.236 217.342ZM430.703 256.348C430.703 257.383 430.851 258.269 430.851 259.156C430.703 258.269 430.703 257.383 430.703 256.348ZM428.635 235.663C428.782 236.55 428.93 237.436 429.078 238.323C428.93 237.288 428.782 236.55 428.635 235.663ZM430.112 246.006C430.26 246.892 430.26 247.927 430.408 248.665C430.26 247.779 430.112 246.892 430.112 246.006ZM430.556 251.177C430.556 252.211 430.703 253.098 430.703 253.984C430.703 253.098 430.556 252.064 430.556 251.177Z" fill="#FF5100"/>
<path d="M215.43 252.507C235.83 252.507 252.367 235.97 252.367 215.57C252.367 195.169 235.83 178.632 215.43 178.632C195.029 178.632 178.492 195.169 178.492 215.57C178.492 235.97 195.029 252.507 215.43 252.507Z" fill="#FF5100"/>
</svg>
