<svg width="428" height="428" viewBox="0 0 428 428" fill="none" xmlns="http://www.w3.org/2000/svg">
<path d="M227.685 422.421C227.389 413.408 228.128 404.395 229.901 395.53L230.049 395.235V395.087C236.55 363.025 255.019 335.691 282.205 317.665C309.539 299.787 342.044 293.434 373.958 300.231H374.549C390.654 303.481 406.759 304.959 423.012 304.663C425.671 304.663 427.74 302.447 427.74 299.787L427.592 273.192C427.592 270.533 425.376 268.316 422.716 268.464C409.123 268.76 395.382 267.43 381.937 264.77C381.642 264.623 381.494 264.623 381.05 264.623C381.05 264.623 381.05 264.623 380.903 264.623C380.903 264.623 380.903 264.623 380.755 264.623C344.26 257.087 311.016 239.357 285.012 213.205C275.852 204.192 267.578 193.997 260.485 183.064C252.064 170.357 252.802 153.809 261.667 141.398C262.85 139.625 264.327 137.704 265.509 135.931C267.134 133.419 270.828 133.863 271.862 136.522C275.852 146.569 281.023 156.321 286.933 165.629C310.278 200.942 346.033 225.173 387.552 233.447L387.995 233.595C399.372 235.811 410.896 236.845 422.421 236.55C425.08 236.55 427.149 234.334 427.149 231.674L427.001 205.079C427.001 202.271 424.785 200.203 421.978 200.203C412.965 200.498 403.952 199.76 394.939 197.839L394.496 197.691C362.434 191.19 335.1 172.721 317.074 145.535C299.344 118.349 292.991 85.6957 299.64 53.7815L299.787 53.486V53.3382C303.038 37.2333 304.515 21.1284 304.22 4.72804C304.22 2.06852 302.004 0 299.344 0H273.044C270.385 0 268.169 2.21627 268.316 4.87579C268.612 18.6167 267.282 32.3575 264.623 45.9506V46.0984V46.2461C257.235 82.8885 239.357 116.132 213.205 142.432C204.192 151.593 194.145 159.719 183.212 166.959C183.064 166.959 183.064 167.107 182.916 167.107C170.357 175.529 153.661 174.642 141.398 165.777C139.625 164.595 137.704 163.117 135.931 161.935C133.419 160.31 133.863 156.616 136.522 155.582C146.569 151.593 156.321 146.422 165.629 140.511C200.794 117.315 225.025 81.8542 233.299 40.4838C233.447 40.1883 233.447 39.7451 233.447 39.3018C235.663 28.0727 236.55 16.5481 236.254 5.02354C236.254 2.36402 234.038 0.295503 231.378 0.295503L204.783 0.443254C201.976 0.443254 199.907 2.65952 199.907 5.4668C200.203 14.4796 199.464 23.4925 197.691 32.3575V32.9485C191.19 65.0106 172.721 92.3445 145.535 110.37C118.349 128.248 85.9912 134.454 53.9292 127.805L53.1905 127.657C37.0856 124.407 20.9807 122.929 4.72804 123.225C2.06852 123.225 0 125.441 0 128.1L0.147752 154.696C0.147752 157.355 2.36402 159.424 5.02354 159.424C18.6167 159.128 32.3575 160.458 45.8029 163.117C46.0984 163.265 46.2461 163.265 46.6894 163.265C46.6894 163.265 46.6894 163.265 46.8372 163.265C83.3317 170.8 116.576 188.531 142.728 214.683C151.888 223.695 160.162 233.89 167.254 244.824C175.676 257.53 174.937 274.079 166.072 286.49C164.89 288.263 163.413 290.183 162.231 291.956C160.606 294.468 156.912 294.025 155.878 291.365C151.888 281.318 146.717 271.567 140.807 262.258C117.462 226.946 81.8542 202.862 40.3361 194.441L39.8928 194.293H39.7451C28.3682 192.077 16.8436 191.042 5.31905 191.338C2.65952 191.338 0.591005 193.554 0.591005 196.214L0.738756 222.809C0.738756 225.616 2.95503 227.685 5.7623 227.685C14.7751 227.389 23.788 228.128 32.653 229.901L32.9485 230.049H33.0963C65.1583 236.55 92.4923 255.019 110.518 282.205C128.396 309.539 134.749 342.044 127.953 373.958V374.549C124.702 390.654 123.225 406.759 123.52 423.012C123.52 425.671 125.736 427.74 128.396 427.74L154.991 427.592C157.651 427.592 159.867 425.376 159.719 422.716C159.424 408.975 160.753 395.235 163.265 381.789C163.265 381.641 163.413 381.494 163.413 381.346V381.198C170.8 344.556 188.678 311.46 214.83 285.308C223.843 276.147 233.89 268.021 244.824 260.781C244.972 260.781 244.972 260.633 245.119 260.633C257.678 252.211 274.374 253.098 286.637 261.963C288.41 263.145 290.331 264.623 292.104 265.805C294.616 267.43 294.173 271.124 291.513 272.158C281.466 276.147 271.715 281.318 262.406 287.228C227.094 310.573 203.01 346.181 194.588 387.699V387.847L194.441 388.143V388.29C192.224 399.667 191.19 411.192 191.486 422.716C191.486 425.376 193.702 427.444 196.361 427.444L222.957 427.297C225.616 427.297 227.832 425.08 227.685 422.421ZM197.543 225.025C197.396 224.877 197.248 224.582 197.1 224.434C191.19 215.421 193.702 203.453 202.715 197.543C202.862 197.543 202.862 197.543 202.862 197.396C203.01 197.396 203.01 197.396 203.01 197.248C212.023 191.338 224.139 193.85 230.049 202.715C230.049 202.862 230.049 202.862 230.196 202.862C230.196 203.01 230.196 203.01 230.344 203.01C236.254 212.023 233.742 224.139 224.877 230.049C224.73 230.049 224.73 230.049 224.73 230.196C224.582 230.196 224.582 230.196 224.582 230.344C215.569 236.254 203.601 234.038 197.543 225.025Z" fill="#1A1A1A"/>
</svg>
