<svg width="444" height="380" viewBox="0 0 444 380" fill="none" xmlns="http://www.w3.org/2000/svg">
<path d="M442.464 76.8088C433.894 50.9523 420.745 27.1644 404.196 6.33142C400.207 1.45563 393.854 -1.05614 387.648 0.421374C278.46 24.6526 164.987 24.6526 55.7989 0.421374C49.5934 -0.908387 43.0923 1.45563 39.2508 6.33142C22.5549 27.1644 9.40502 50.9523 0.835443 76.8088C-1.08532 82.4233 0.39219 88.7766 4.38147 93.2092C76.0408 171.813 130.561 264.453 164.692 365.072C166.908 371.72 173.261 376.301 180.353 376.301C207.983 380.585 235.464 380.585 263.094 376.301C270.186 376.301 276.539 371.72 278.756 365.072C312.738 264.453 367.259 171.813 438.77 93.2092C442.907 88.6289 444.385 82.4233 442.464 76.8088ZM391.49 68.387L321.16 109.905C264.128 143.592 229.111 204.761 229.111 270.954V338.476H214.336V270.954C214.336 204.909 179.319 143.592 122.287 109.905L51.9574 68.387L59.4927 55.6803L126.572 95.1299C185.229 129.851 258.218 129.851 317.023 95.1299L384.102 55.6803L391.49 68.387Z" fill="#1A1A1A"/>
</svg>
