<svg width="421" height="369" viewBox="0 0 421 369" fill="none" xmlns="http://www.w3.org/2000/svg">
<path d="M418.099 267.43L375.251 192.963C372.148 187.201 366.386 183.803 360.181 183.803H279.804C273.007 183.803 268.87 176.563 272.269 170.653L312.457 101.21C315.56 95.7428 315.56 89.094 312.457 83.775L269.018 8.86507C265.915 3.39828 260.005 0 253.8 0H166.922C160.569 0 154.806 3.39828 151.704 8.86507L108.856 83.184C105.753 88.6507 105.753 95.2996 108.856 100.766L149.192 170.8C152.59 176.71 148.305 183.95 141.657 183.95H60.5411C54.1878 183.95 48.4255 187.349 45.3227 192.815L2.32708 266.987C-0.775694 272.453 -0.775694 279.102 2.32708 284.569L45.7659 359.627C48.8687 365.093 54.7788 368.492 60.8366 368.492L146.976 368.639C153.329 368.639 159.091 365.241 162.194 359.774L202.678 290.627C206.076 284.864 214.498 284.864 217.748 290.627L258.232 359.922C261.335 365.389 267.245 368.787 273.451 368.787H359.442C365.795 368.787 371.557 365.389 374.66 359.922L418.099 284.864C421.202 279.398 421.202 272.749 418.099 267.43ZM149.635 304.811H75.7595C68.8151 304.811 64.6781 297.571 68.0764 291.661L105.014 227.98C108.412 222.07 116.982 222.07 120.233 227.98L157.17 291.661C160.569 297.571 156.284 304.811 149.635 304.811ZM212.429 238.175C197.359 238.175 185.243 226.059 185.243 210.989C185.243 195.918 197.359 183.803 212.429 183.803C227.5 183.803 239.616 195.918 239.616 210.989C239.616 226.059 227.5 238.175 212.429 238.175ZM247.742 124.702H172.832C166.035 124.702 161.898 117.462 165.297 111.552L202.826 46.8371C206.076 41.0748 214.646 41.0748 217.896 46.8371L255.277 111.552C258.675 117.462 254.391 124.702 247.742 124.702ZM348.065 304.811H274.337C267.541 304.811 263.404 297.571 266.802 291.661L303.74 227.98C306.695 222.07 315.264 222.07 318.662 227.98L355.6 291.661C358.999 297.571 354.714 304.811 348.065 304.811Z" fill="#1A1A1A"/>
</svg>
