<svg width="432" height="432" viewBox="0 0 432 432" fill="none" xmlns="http://www.w3.org/2000/svg">
<path d="M93.385 224.441L5.76849 222.963C2.37022 222.963 -0.141556 225.77 0.00619484 228.873C2.07471 262.265 11.5308 293.44 27.0447 321.07C28.5222 323.582 31.4772 324.764 34.1367 323.582L119.094 287.235C124.561 284.871 131.062 285.314 136.085 288.86C142.586 293.588 144.655 302.453 141.404 309.398L101.955 393.616C100.773 396.128 101.659 399.378 104.171 400.856C131.209 417.108 162.089 427.746 195.333 430.997C198.584 431.292 201.391 428.781 201.539 425.382L203.016 337.766C203.903 276.154 154.997 225.475 93.385 224.441Z" fill="#1A1A1A"/>
<path d="M207.006 93.3851L208.483 5.76857C208.483 2.37029 205.676 -0.141484 202.573 0.00626732C169.182 2.07478 138.006 11.5309 110.377 27.0447C107.865 28.5223 106.683 31.4773 107.865 34.1368L144.212 119.094C146.576 124.561 146.132 131.062 142.586 136.085C137.858 142.586 129.141 144.655 122.049 141.404L37.9784 101.807C35.4666 100.625 32.2161 101.511 30.7386 104.023C14.486 131.062 3.84788 161.942 0.597348 195.186C0.301845 198.436 2.81362 201.243 6.21189 201.391L93.8284 202.869C155.293 203.903 205.972 154.997 207.006 93.3851Z" fill="#1A1A1A"/>
<path d="M338.061 207.006L425.678 208.484C429.076 208.484 431.588 205.676 431.44 202.574C429.372 169.182 419.915 138.006 404.402 110.377C402.924 107.865 399.969 106.683 397.309 107.865L312.353 144.212C306.886 146.576 300.385 146.133 295.361 142.587C288.86 137.858 286.792 129.141 290.042 122.049L329.492 38.1264C330.674 35.6146 329.787 32.3641 327.275 30.8866C300.385 14.4862 269.357 3.84808 236.113 0.745304C232.862 0.449802 230.055 2.96157 229.907 6.35985L228.43 93.9763C227.543 155.293 276.449 205.972 338.061 207.006Z" fill="#1A1A1A"/>
<path d="M286.939 311.909C283.836 304.669 286.052 296.1 292.997 291.52C298.02 287.974 304.521 287.826 309.988 290.485L393.615 329.639C396.127 330.821 399.378 329.935 400.855 327.423C417.108 300.385 427.746 269.505 430.849 236.261C431.144 233.01 428.632 230.203 425.234 230.055L337.618 228.578C276.005 227.543 225.327 276.449 224.292 338.061L222.815 425.678C222.815 429.076 225.622 431.588 228.725 431.44C262.117 429.371 293.292 419.915 320.922 404.402C323.434 402.924 324.616 399.969 323.434 397.309L286.939 311.909Z" fill="#1A1A1A"/>
</svg>
