<svg width="320" height="426" viewBox="0 0 320 426" fill="none" xmlns="http://www.w3.org/2000/svg">
<path d="M40.8902 105.938C-13.6301 166.369 -13.6301 259.009 40.8902 319.439C43.8452 322.837 43.8452 328.009 40.7424 331.259L13.2607 359.036C11.0444 361.253 11.1922 364.946 13.4084 367.163C53.0058 404.839 104.719 425.524 159.682 425.377C214.646 425.229 266.359 404.839 305.956 367.163C308.32 365.094 308.32 361.4 306.104 359.036L278.622 331.259C275.371 328.009 275.371 322.985 278.474 319.439C332.994 259.009 332.994 166.369 278.474 105.938C275.519 102.54 275.519 97.3689 278.622 94.1183L306.104 66.3411C308.32 64.1248 308.172 60.4311 305.956 58.2148C266.359 20.5382 214.646 -0.146965 159.682 0.000786082C104.866 0.000786082 53.1535 20.686 13.4084 58.2148C11.0444 60.2833 11.0444 63.9771 13.2607 66.3411L40.7424 94.1183C43.8452 97.5166 43.8452 102.54 40.8902 105.938ZM193.222 253.542C173.719 269.499 145.498 269.499 126.143 253.542C123.926 251.769 120.676 251.769 118.607 253.837L90.9778 281.024C87.4318 284.57 81.6695 284.274 78.419 280.58C45.6182 241.426 45.766 184.099 78.419 144.945C81.6695 141.103 87.4318 140.955 90.9778 144.502L118.607 171.688C120.676 173.756 123.926 173.756 126.143 171.983C145.646 156.026 173.866 156.026 193.222 171.983C195.438 173.756 198.688 173.756 200.757 171.688L228.386 144.502C231.933 140.955 237.695 141.251 240.945 144.945C273.746 184.099 273.598 241.426 240.945 280.58C237.695 284.422 231.933 284.57 228.386 281.024L200.757 253.837C198.688 251.769 195.586 251.621 193.222 253.542ZM228.977 131.795C189.232 97.6644 130.132 97.6644 90.3868 131.795C87.1363 134.75 82.1128 134.454 78.8622 131.352L53.7445 106.234C50.1985 102.688 50.494 97.0734 54.1878 93.8228C114.175 40.4846 205.337 40.4846 265.324 93.8228C269.018 97.0734 269.166 102.688 265.768 106.234L240.65 131.352C237.547 134.602 232.376 134.602 228.977 131.795ZM53.7445 319.291L78.8622 294.174C81.965 291.071 86.9886 290.923 90.3868 293.73C130.132 327.861 189.232 327.861 228.977 293.73C232.228 290.775 237.252 291.071 240.502 294.174L265.62 319.291C269.166 322.837 268.87 328.452 265.177 331.702C205.042 385.041 114.175 385.041 53.8923 331.555C50.3462 328.452 50.3462 322.69 53.7445 319.291Z" fill="#FF5100"/>
</svg>
