<svg width="1555" height="474" viewBox="0 0 1555 474" fill="none" xmlns="http://www.w3.org/2000/svg">
<path d="M488.795 80.4564C483.433 54.2977 453.656 30.1622 403.279 44.0662C394.823 46.3986 312.142 106.551 312.142 106.551C311.085 107.324 309.835 107.826 308.507 108.007C308.507 108.007 203.539 132.696 178.673 151.729C157.945 167.605 133.916 200.838 121.232 219.535C101.651 243.413 79.8402 269.881 67.2074 284.816C63.8301 288.811 67.2719 294.687 72.5828 294.068L101.174 290.654C88.1418 330.471 63.3918 347.004 52.6539 352.507C49.5988 354.053 47.9746 357.352 48.632 360.625L61.948 426.279C62.6699 429.849 65.9184 432.413 69.6824 432.413H149.127C153.613 432.413 157.248 428.779 156.991 424.475C155.521 398.69 146.846 386.564 139.06 380.856C134.6 377.557 135.128 370.934 140.039 368.279L194.915 338.59C202.469 334.492 210.332 343.473 204.866 349.968L181.831 377.299C180.052 379.4 179.588 382.222 180.58 384.76L197.416 427.542C198.589 430.467 201.515 432.426 204.776 432.426H288.888C292.458 432.426 295.578 430.119 296.493 426.795C299.484 415.957 304.047 392.505 290.782 383.923C286.4 381.088 286.529 374.812 290.782 371.823C310.905 357.648 341.236 336.502 348.442 327.817C360.431 313.372 366.734 298.218 367.972 291.401C402.041 302.805 428.532 298.553 428.532 298.553C428.532 298.553 430.207 363.64 395.248 392.299C381.416 403.638 361.41 380.572 384.91 377.853C394.294 376.784 389.95 361.424 380.746 363.447C333.992 373.768 344.343 405.275 348.249 413.329C351.613 420.274 406.295 482.823 476.962 345.535C566.732 171.123 488.77 80.4822 488.77 80.4822L488.795 80.4564ZM427.694 104.875L446.411 124.771C440.92 129.939 432.27 129.681 427.101 124.179C421.932 118.689 422.19 110.043 427.694 104.875ZM462.615 242.202C388.725 320.034 337.498 243.993 333.128 233.594C331.981 230.875 317.402 202.5 355.455 190.581C357.724 189.872 362.222 198.712 364.44 203.17C368.1 210.567 382.1 239.38 422.692 222.602C523.716 180.813 480.533 121.949 482.118 120.661C490.394 113.973 531.141 170.027 462.615 242.202Z" fill="#FF5100"/>
<path d="M543.233 430.519C543.233 431.64 542.305 432.606 541.184 432.606H441.088C439.966 432.606 439.038 431.717 439.038 430.596V418.47C446.592 411.486 453.295 403.535 458.838 396.036C473.495 376.243 485.38 354.13 495.37 331.412C500.913 352.764 512.038 380.585 514.242 380.856C517.774 381.294 542.55 380.456 543.233 430.506V430.519Z" fill="#FF5100"/>
<path d="M541.582 117.131C540.525 118.02 560.389 149.604 529.426 180.054C529.852 192.36 529.31 204.705 527.982 216.843C527.905 217.694 527.789 218.557 527.673 219.408C583.412 158.792 548.672 111.448 541.582 117.131Z" fill="#FF5100"/>
<path d="M671.808 139.299L690.014 217.76L708.433 139.299H769.13L777.498 283.66H731.036L729.364 201.018L710.53 283.66H669.722L650.888 201.018L649.217 283.66H602.743L611.111 139.299H671.808Z" fill="#0E0E68"/>
<path d="M829.187 286.172C809.31 286.172 788.379 277.38 788.379 251.231C788.379 225.081 814.751 219.015 830.23 218.387L854.931 217.344V216.301C854.931 210.448 850.119 206.266 837.555 206.266C824.991 206.266 811.396 211.491 804.071 215.673L792.563 185.969C803.028 181.159 821.862 174.879 843.837 174.879C865.812 174.879 878.364 179.062 887.787 187.427C897.198 195.792 902.022 207.308 902.022 225.081V283.66H857.444L856.401 274.252C851.174 279.477 842.794 286.172 829.187 286.172ZM835.469 249.145C835.469 255.425 840.708 257.51 845.935 257.51C851.162 257.51 854.303 254.37 855.346 253.328V240.152L845.935 240.78C840.909 240.994 835.469 242.877 835.469 249.145Z" fill="#0E0E68"/>
<path d="M964.805 176.965L964.225 190.401L964.177 190.555C970.032 182.191 979.455 174.868 993.062 174.868C1006.67 174.868 1019.22 178.008 1024.87 192.653C1032.83 180.105 1042.24 174.868 1058.99 174.868C1085.15 174.868 1096.65 191.61 1096.65 219.845V283.66H1049.56V229.264C1049.56 218.802 1047.47 212.949 1040.15 212.949C1032.84 212.949 1030.73 218.814 1030.73 229.264V283.66H983.639V229.264C983.639 218.802 981.541 212.949 974.216 212.949C966.891 212.949 964.805 218.814 964.805 229.264V283.66H917.715V176.965H964.805Z" fill="#0E0E68"/>
<path d="M1151.48 286.172C1135.79 286.172 1125.33 280.52 1120.09 273.198C1114.86 265.875 1112.13 257.499 1112.13 241.811V176.953H1159.22V233.435C1159.22 243.897 1162.99 247.664 1169.26 247.664C1175.53 247.664 1179.1 243.897 1179.1 233.435V176.953H1226.19V283.648H1181.19L1180.77 274.24C1177.63 277.38 1167.18 286.16 1151.47 286.16L1151.48 286.172Z" fill="#0E0E68"/>
<path d="M1287.93 286.172C1274.32 286.172 1264.91 282.618 1258.63 276.966C1252.35 271.113 1249.22 261.693 1249.22 246.006V211.491H1234.57V176.977H1249.22V150.828H1296.31V176.977H1318.29V211.491H1296.31V240.781C1296.31 243.767 1297.02 245.568 1298.33 246.634C1299.77 247.819 1301.94 248.103 1304.68 248.103C1309.92 248.103 1315.14 246.634 1315.14 246.634L1317.23 282.618C1313.05 283.66 1301.54 286.172 1287.93 286.172Z" fill="#0E0E68"/>
<path d="M1375.2 139.299V170.686C1375.2 176.965 1374.79 190.556 1374.79 190.556C1380.02 182.191 1388.81 174.868 1404.5 174.868C1435.89 174.868 1444.27 194.75 1444.27 220.899V283.66H1397.18V231.362C1397.18 220.899 1396.14 212.949 1386.3 212.949C1376.46 212.949 1375.2 220.899 1375.2 231.362V283.66H1328.11V139.299H1375.2Z" fill="#0E0E68"/>
<mask id="mask0_4484_51" style="mask-type:luminance" maskUnits="userSpaceOnUse" x="1465" y="151" width="26" height="33">
<path d="M1490.34 183.16V183.489H1483.06L1477.25 172.091H1472.33V183.489H1465.52V151.93H1477.44C1479.88 151.93 1481.98 152.292 1483.74 153.022C1485.49 153.753 1486.84 154.829 1487.78 156.25C1488.73 157.67 1489.19 159.411 1489.19 161.456C1489.19 163.698 1488.72 165.529 1487.74 166.958C1486.76 168.379 1485.39 169.504 1483.58 170.325L1490.34 183.152L1490.34 183.16ZM1472.33 166.58H1477.44C1479.06 166.58 1480.28 166.178 1481.13 165.365C1481.98 164.552 1482.39 163.435 1482.39 162.023C1482.39 160.61 1481.98 159.444 1481.15 158.639C1480.31 157.835 1479.09 157.424 1477.44 157.424H1472.33V166.58Z" fill="white"/>
</mask>
<g mask="url(#mask0_4484_51)">
<path d="M2239.69 -1043.52H-125.368V1321.54H2239.69V-1043.52Z" fill="#0E0E68"/>
</g>
<path d="M1498.21 187.997C1500.85 185.361 1502.92 182.298 1504.35 178.882C1505.86 175.342 1506.6 171.573 1506.6 167.713C1506.6 163.854 1505.85 160.076 1504.35 156.545C1502.91 153.129 1500.84 150.066 1498.21 147.43C1495.58 144.794 1492.5 142.724 1489.09 141.279C1485.56 139.784 1481.8 139.029 1477.92 139.029C1474.04 139.029 1470.29 139.784 1466.75 141.279C1463.34 142.724 1460.27 144.794 1457.64 147.43C1455 150.066 1452.93 153.137 1451.49 156.545C1449.98 160.084 1449.23 163.837 1449.23 167.713C1449.23 171.589 1449.98 175.342 1451.49 178.882C1452.93 182.298 1455 185.361 1457.63 187.997C1460.26 190.633 1463.34 192.702 1466.74 194.148C1470.28 195.651 1474.05 196.398 1477.91 196.398C1481.77 196.398 1485.54 195.642 1489.08 194.148C1492.5 192.702 1495.56 190.633 1498.2 187.997H1498.21ZM1455.3 167.713C1455.3 155.231 1465.45 145.081 1477.93 145.081C1490.41 145.081 1500.56 155.231 1500.56 167.713C1500.56 180.196 1490.41 190.346 1477.93 190.346C1465.45 190.346 1455.3 180.179 1455.3 167.713Z" fill="#0E0E68"/>
<path d="M605.701 369V307.51H635.371C641.735 307.51 646.465 309.058 649.733 311.724C653.259 314.648 655.065 318.604 655.065 323.506C655.065 329.612 651.883 333.482 646.465 335.546V335.804C653.173 337.868 657.473 343.544 657.473 350.854C657.473 357.046 655.237 361.518 651.195 364.614C647.583 367.452 642.509 369 636.059 369H605.701ZM620.751 356.788H634.339C639.327 356.788 642.423 353.95 642.423 349.564C642.423 344.662 638.811 342.168 634.167 342.168H620.751V356.788ZM620.751 331.848H633.135C637.521 331.848 640.531 329.698 640.531 325.656C640.531 321.786 637.693 319.55 633.221 319.55H620.751V331.848ZM675.439 369V324.968H688.855V331.848H689.113C692.209 326.602 695.821 324.28 701.153 324.28C702.443 324.28 703.303 324.366 703.905 324.624V336.664H703.561C694.961 335.46 689.457 339.674 689.457 349.22V369H675.439ZM732.987 370.118C724.215 370.118 717.937 365.388 717.937 356.702C717.937 346.984 725.677 344.06 734.793 342.856C743.049 341.824 745.973 340.964 745.973 337.954C745.973 335.116 744.167 333.224 739.953 333.224C735.481 333.224 733.245 335.202 732.815 338.9H719.915C720.259 330.73 726.537 323.764 739.867 323.764C746.489 323.764 750.961 324.968 754.143 327.376C757.927 330.128 759.733 334.428 759.733 339.932V362.12C759.733 365.646 760.077 367.624 761.281 368.398V369H747.693C747.005 368.054 746.575 366.334 746.231 364.098H746.059C743.479 367.796 739.609 370.118 732.987 370.118ZM737.459 361.174C742.705 361.174 746.317 357.992 746.317 353.262V348.016C744.511 348.962 741.931 349.65 739.093 350.338C733.675 351.542 731.439 352.918 731.439 356.272C731.439 359.798 734.019 361.174 737.459 361.174ZM798.176 370.376C785.276 370.376 777.192 364.442 776.762 354.724H790.006C790.522 359.11 793.446 361.26 798.09 361.26C802.304 361.26 804.97 359.712 804.97 356.874C804.97 352.918 799.638 352.488 793.79 351.456C786.136 350.166 777.966 348.102 777.966 337.782C777.966 328.494 786.566 323.678 796.972 323.678C809.442 323.678 816.15 329.096 816.838 337.782H803.938C803.422 333.826 800.756 332.622 796.886 332.622C793.446 332.622 790.78 333.912 790.78 336.664C790.78 339.76 795.768 340.19 801.358 341.222C809.098 342.512 818.214 344.49 818.214 355.756C818.214 365.388 809.7 370.376 798.176 370.376ZM835.664 369V324.968H849.682V369H835.664ZM835.664 318.862V307.51H849.682V318.862H835.664ZM869.394 369V307.51H883.584V369H869.394Z" fill="#FF5100"/>
</svg>
