<svg width="1234" height="1031" viewBox="0 0 1234 1031" fill="none" xmlns="http://www.w3.org/2000/svg">
<g clip-path="url(#clip0_4484_36)">
<path d="M299.511 952V871.92H338.151C346.439 871.92 352.599 873.936 356.855 877.408C361.447 881.216 363.799 886.368 363.799 892.752C363.799 900.704 359.655 905.744 352.599 908.432V908.768C361.335 911.456 366.935 918.848 366.935 928.368C366.935 936.432 364.023 942.256 358.759 946.288C354.055 949.984 347.447 952 339.047 952H299.511ZM319.111 936.096H336.807C343.303 936.096 347.335 932.4 347.335 926.688C347.335 920.304 342.631 917.056 336.583 917.056H319.111V936.096ZM319.111 903.616H335.239C340.951 903.616 344.871 900.816 344.871 895.552C344.871 890.512 341.175 887.6 335.351 887.6H319.111V903.616ZM425.052 952V871.92H463.356C479.26 871.92 491.356 880.096 491.356 894.992C491.356 904.288 486.764 911.12 477.468 914.368V914.704C484.412 917.056 487.996 921.424 489.116 929.376C490.796 939.904 489.676 949.984 492.476 950.992V952H473.212C471.084 950.768 471.42 941.36 470.188 933.408C469.18 926.016 465.372 921.984 456.86 921.984H444.876V952H425.052ZM444.876 907.312H459.772C467.612 907.312 471.644 903.616 471.644 897.568C471.644 891.744 467.836 887.6 460.22 887.6H444.876V907.312ZM546.086 952L574.87 871.92H595.254L624.15 952H603.318L598.614 937.552H570.614L566.022 952H546.086ZM575.206 923.328H594.022L587.974 903.952C586.63 899.808 584.838 892.64 584.838 892.64H584.614C584.614 892.64 582.71 899.808 581.366 903.952L575.206 923.328ZM710.46 953.904C689.18 953.904 675.18 944.496 674.732 926.8H694.668C695.564 934.864 700.828 938.224 710.348 938.224C716.844 938.224 723.228 935.872 723.228 929.824C723.228 923.44 716.732 922.096 705.756 919.408C691.868 916.16 677.196 911.904 677.196 895.104C677.196 877.968 691.084 870.464 709.004 870.464C726.364 870.464 739.804 878.304 740.588 895.104H721.212C720.428 888.944 715.724 885.472 708.332 885.472C701.388 885.472 696.796 888.496 696.796 892.976C696.796 898.576 702.956 899.92 714.94 902.608C729.836 906.08 743.276 910.672 743.276 927.808C743.276 944.608 728.94 953.904 710.46 953.904ZM801.895 952V871.92H821.719V952H801.895ZM883.136 952V871.92H902.96V935.2H938.912V952H883.136Z" fill="#FF5100"/>
<path d="M891.454 80.8306C883.52 42.1447 839.463 6.45091 764.929 27.0135C752.417 30.4628 630.088 119.421 630.088 119.421C628.524 120.565 626.674 121.308 624.71 121.575C624.71 121.575 469.405 158.088 432.615 186.235C401.946 209.714 366.396 258.862 347.629 286.514C318.658 321.826 286.388 360.97 267.697 383.057C262.7 388.965 267.792 397.655 275.65 396.74L317.952 391.69C298.67 450.576 262.052 475.027 246.165 483.164C241.644 485.451 239.241 490.329 240.214 495.17L259.916 592.265C260.984 597.544 265.79 601.337 271.359 601.337H388.901C395.538 601.337 400.916 595.963 400.535 589.598C398.361 551.465 385.525 533.532 374.006 525.089C367.407 520.211 368.189 510.415 375.455 506.49L456.645 462.582C467.822 456.522 479.456 469.805 471.369 479.41L437.287 519.83C434.655 522.936 433.969 527.109 435.437 530.863L460.345 594.133C462.081 598.459 466.41 601.356 471.236 601.356H595.682C600.965 601.356 605.58 597.945 606.935 593.028C611.359 577.001 618.111 542.317 598.486 529.625C592.001 525.432 592.192 516.152 598.486 511.73C628.257 490.768 673.134 459.495 683.795 446.65C701.533 425.287 710.859 402.876 712.69 392.795C763.098 409.661 802.291 403.372 802.291 403.372C802.291 403.372 804.77 499.629 753.047 542.012C732.582 558.782 702.982 524.67 737.751 520.649C751.635 519.067 745.208 496.351 731.59 499.343C662.415 514.608 677.73 561.203 683.509 573.113C688.487 583.385 769.391 675.888 873.945 472.854C1006.76 214.916 891.415 80.8686 891.415 80.8686L891.454 80.8306ZM801.051 116.944L828.744 146.368C820.619 154.01 807.822 153.629 800.174 145.491C792.526 137.373 792.908 124.586 801.051 116.944ZM852.718 320.035C743.396 435.14 667.603 322.684 661.138 307.305C659.44 303.284 637.87 261.32 694.171 243.692C697.527 242.644 704.184 255.718 707.464 262.311C712.881 273.25 733.593 315.862 793.651 291.049C943.12 229.247 879.228 142.194 881.574 140.289C893.819 130.398 954.106 213.296 852.718 320.035Z" fill="#FF5100"/>
<path d="M971.997 598.535C971.997 600.193 970.624 601.622 968.965 601.622H820.869C819.209 601.622 817.836 600.307 817.836 598.649V580.717C829.013 570.388 838.93 558.63 847.131 547.539C868.816 518.267 886.401 485.565 901.182 451.967C909.383 483.545 925.842 524.689 929.103 525.089C934.329 525.737 970.986 524.498 971.997 598.516V598.535Z" fill="#FF5100"/>
<path d="M969.554 135.067C967.99 136.382 997.38 183.091 951.569 228.123C952.198 246.322 951.397 264.579 949.433 282.531C949.318 283.788 949.147 285.065 948.975 286.323C1031.44 196.678 980.044 126.663 969.554 135.067Z" fill="#FF5100"/>
<path d="M171.517 653.096L194.587 752.518L217.927 653.096H294.84L305.444 836.026H246.568L244.451 731.304L220.585 836.026H168.874L145.008 731.304L142.891 836.026H84L94.6036 653.096H171.517Z" fill="#0E0E68"/>
<path d="M370.944 839.209C345.756 839.209 319.232 828.068 319.232 794.933C319.232 761.797 352.65 754.11 372.265 753.314L403.566 751.993V750.672C403.566 743.255 397.468 737.955 381.547 737.955C365.627 737.955 348.4 744.576 339.118 749.876L324.534 712.236C337.796 706.14 361.662 698.183 389.507 698.183C417.353 698.183 433.259 703.483 445.199 714.083C457.124 724.683 463.237 739.276 463.237 761.797V836.026H406.75L405.428 824.105C398.804 830.726 388.186 839.209 370.944 839.209ZM378.904 792.29C378.904 800.248 385.542 802.89 392.166 802.89C398.789 802.89 402.77 798.911 404.091 797.59V780.895L392.166 781.69C385.798 781.961 378.904 784.348 378.904 792.29Z" fill="#0E0E68"/>
<path d="M542.795 700.825L542.059 717.851L541.999 718.046C549.418 707.446 561.359 698.168 578.601 698.168C595.843 698.168 611.748 702.147 618.912 720.704C628.99 704.804 640.916 698.168 662.138 698.168C695.285 698.168 709.869 719.383 709.869 755.161V836.026H650.198V767.097C650.198 753.839 647.539 746.423 638.272 746.423C629.005 746.423 626.332 753.854 626.332 767.097V836.026H566.66V767.097C566.66 753.839 564.002 746.423 554.72 746.423C545.438 746.423 542.795 753.854 542.795 767.097V836.026H483.123V700.825H542.795Z" fill="#0E0E68"/>
<path d="M779.346 839.209C759.46 839.209 746.198 832.047 739.56 822.768C732.936 813.49 729.482 802.875 729.482 782.997V700.811H789.153V772.382C789.153 785.639 793.93 790.414 801.875 790.414C809.82 790.414 814.341 785.639 814.341 772.382V700.811H874.012V836.011H816.984L816.458 824.09C812.478 828.068 799.231 839.194 779.331 839.194L779.346 839.209Z" fill="#0E0E68"/>
<path d="M952.249 839.209C935.007 839.209 923.082 834.705 915.121 827.543C907.161 820.126 903.196 808.19 903.196 788.311V744.576H884.632V700.84H903.196V667.705H962.868V700.84H990.713V744.576H962.868V781.69C962.868 785.474 963.769 787.756 965.421 789.107C967.253 790.609 970.002 790.969 973.471 790.969C980.11 790.969 986.733 789.107 986.733 789.107L989.377 834.705C984.075 836.026 969.491 839.209 952.249 839.209Z" fill="#0E0E68"/>
<path d="M1062.84 653.096V692.868C1062.84 700.825 1062.31 718.046 1062.31 718.046C1068.93 707.446 1080.08 698.168 1099.96 698.168C1139.73 698.168 1150.35 723.361 1150.35 756.497V836.026H1090.68V769.754C1090.68 756.497 1089.36 746.423 1076.89 746.423C1064.43 746.423 1062.84 756.497 1062.84 769.754V836.026H1003.16V653.096H1062.84Z" fill="#0E0E68"/>
<mask id="mask0_4484_36" style="mask-type:luminance" maskUnits="userSpaceOnUse" x="1166" y="665" width="26" height="33">
<path d="M1191.11 697.132V697.46H1183.83L1178.03 686.062H1173.1V697.46H1166.29V665.901H1178.22C1180.65 665.901 1182.76 666.263 1184.51 666.994C1186.26 667.724 1187.61 668.8 1188.55 670.221C1189.5 671.642 1189.97 673.382 1189.97 675.427C1189.97 677.669 1189.49 679.5 1188.51 680.929C1187.54 682.35 1186.16 683.475 1184.35 684.296L1191.12 697.123L1191.11 697.132ZM1173.1 680.552H1178.22C1179.83 680.552 1181.06 680.149 1181.9 679.336C1182.75 678.523 1183.17 677.406 1183.17 675.994C1183.17 674.581 1182.75 673.415 1181.92 672.611C1181.08 671.806 1179.86 671.395 1178.22 671.395H1173.1V680.552Z" fill="white"/>
</mask>
<g mask="url(#mask0_4484_36)">
<path d="M1940.46 -529.545H-424.596V1835.51H1940.46V-529.545Z" fill="#0E0E68"/>
</g>
<path d="M1198.98 701.968C1201.62 699.332 1203.69 696.269 1205.13 692.853C1206.63 689.314 1207.38 685.544 1207.38 681.684C1207.38 677.825 1206.62 674.047 1205.13 670.516C1203.68 667.1 1201.61 664.037 1198.98 661.401C1196.36 658.765 1193.28 656.695 1189.86 655.25C1186.33 653.755 1182.57 653 1178.69 653C1174.82 653 1171.06 653.755 1167.52 655.25C1164.11 656.695 1161.05 658.765 1158.41 661.401C1155.77 664.037 1153.7 667.108 1152.27 670.516C1150.76 674.056 1150 677.808 1150 681.684C1150 685.561 1150.76 689.314 1152.26 692.853C1153.7 696.269 1155.77 699.332 1158.4 701.968C1161.03 704.604 1164.11 706.674 1167.52 708.119C1171.06 709.622 1174.82 710.369 1178.68 710.369C1182.54 710.369 1186.31 709.614 1189.85 708.119C1193.27 706.674 1196.33 704.604 1198.97 701.968H1198.98ZM1156.07 681.684C1156.07 669.202 1166.22 659.052 1178.7 659.052C1191.18 659.052 1201.33 669.202 1201.33 681.684C1201.33 694.167 1191.18 704.317 1178.7 704.317C1166.22 704.317 1156.07 694.15 1156.07 681.684Z" fill="#0E0E68"/>
</g>
<defs>
<clipPath id="clip0_4484_36">
<rect width="1233.95" height="1030.74" fill="white"/>
</clipPath>
</defs>
</svg>
