<?xml version="1.0" encoding="UTF-8" standalone="no"?>
<!-- Created with Inkscape (http://www.inkscape.org/) -->

<svg
   width="24.800377mm"
   height="24.785631mm"
   viewBox="0 0 24.800377 24.785631"
   version="1.1"
   id="svg1"
   xml:space="preserve"
   xmlns="http://www.w3.org/2000/svg"
   xmlns:svg="http://www.w3.org/2000/svg"><defs
     id="defs1"><linearGradient
       id="swatch1"><stop
         style="stop-color:#000000;stop-opacity:1;"
         offset="0"
         id="stop1" /></linearGradient></defs><g
     id="layer1"
     transform="translate(24.969212,-184.71492)"
     style="display:inline"><path
       style="display:inline;fill:#ff7424;fill-opacity:1;stroke:none;stroke-width:0.201456;stroke-dasharray:none;stroke-dashoffset:0"
       d="m -12.784985,209.47569 c -0.0533,-0.0239 -0.15143,-0.10232 -0.21806,-0.17398 l -0.12114,-0.13031 -0.0135,-2.28705 -0.0135,-2.28704 -0.37621,-0.0778 c -0.49085,-0.10149 -1.05833,-0.33076 -1.51089,-0.61042 -0.50135,-0.3098 -1.21991,-1.04209 -1.52055,-1.5496 -0.26233,-0.44284 -0.53191,-1.17781 -0.60896,-1.66023 -0.0277,-0.17351 -0.0504,-1.07237 -0.0507,-2.00124 -3.7e-4,-1.413 0.0115,-1.7093 0.0732,-1.82841 0.11961,-0.23129 0.29351,-0.28915 0.86899,-0.28915 h 0.5112 v -1.36142 c 0,-1.19624 0.01,-1.3784 0.0827,-1.50137 0.16717,-0.283 0.61551,-0.36505 0.8507,-0.1557 0.21071,0.18757 0.22959,0.32802 0.22959,1.70861 v 1.30988 h 2.03516 2.03518 v -1.30988 c 0,-1.45831 0.0194,-1.57055 0.29993,-1.74163 0.1918,-0.11694 0.3347598,-0.12344 0.5428598,-0.0247 0.30973,0.14698 0.32016,0.2028 0.32016,1.71478 v 1.36142 h 0.5112 c 0.57549,0 0.74938,0.0578 0.86899,0.28915 0.0616,0.11911 0.0734,0.4154 0.0732,1.82841 -1.8e-4,0.92887 -0.023,1.82774 -0.0506,2.00124 -0.29799,1.86577 -1.79617,3.43664 -3.6437698,3.82057 l -0.37554,0.078 v 1.87647 1.87647 l 0.25439,-0.0251 c 1.38583,-0.1364 2.4009498,-0.38455 3.5606798,-0.87043 2.25398,-0.94434 4.21754,-2.7223 5.45658,-4.9408 1.48042,-2.65069 1.79060999,-5.95226 0.83297,-8.86569 -0.80634,-2.45309 -2.40006,-4.53358 -4.55636,-5.94797 -3.7861398,-2.48346 -8.7327498,-2.42549 -12.4775298,0.14626 -0.61546,0.42266 -0.84921,0.61671 -1.47033,1.22055 -1.40362,1.36461 -2.33745,2.87644 -2.91483,4.71901 -0.61769,1.97118 -0.66745,4.07806 -0.14453,6.1198 0.80843,3.15653 3.04798,5.88974 6.00761,7.33186 0.60544,0.295 1.59233,0.65554 2.18735,0.79909 0.45933,0.11083 0.62312,0.27082 0.62312,0.60867 0,0.19476 -0.0247,0.26172 -0.14174,0.38386 -0.21725,0.22677 -0.36965,0.23111 -1.10158,0.0313 -1.46057,-0.39859 -2.94381,-1.131 -4.19071,-2.06934 -0.59237,-0.44577 -1.65017,-1.46659 -2.12235,-2.04815 -1.11209,-1.3697 -1.95755,-3.04998 -2.39174,-4.75338 -0.53179,-2.08635 -0.52652,-4.07823 0.0165,-6.20937 0.41959,-1.6469 1.27914,-3.34798 2.37155,-4.69334 0.47396,-0.58369 1.54074,-1.61675 2.10879,-2.04211 3.08946,-2.31345 6.97879,-3.08992 10.6455598,-2.12529 0.89447,0.23531 1.44994,0.44564 2.365,0.89547 1.98312,0.97491 3.59819,2.39821 4.85373,4.27743 0.40551,0.60692 1.04269,1.86755 1.30067999,2.57334 0.2085,0.57034 0.46989,1.57503 0.57543,2.21171 0.55878,3.37076 -0.28538,6.78206 -2.36197999,9.5449 -0.43317,0.57631 -1.4579,1.63562 -2.0373,2.10606 -1.71771,1.39465 -3.95117,2.36824 -6.1111098,2.66393 -0.67077,0.0918 -1.80907,0.14029 -1.93732,0.0825 z m 1.2114,-6.15991 c 0.61053,-0.19142 0.97992,-0.41775 1.45878,-0.89381 0.3734098,-0.37122 0.4759398,-0.50934 0.6673498,-0.89895 0.33246,-0.67674 0.36755,-0.91091 0.36854,-2.45917 l 8.8e-4,-1.32043 h -3.4888698 -3.48886 l 8.8e-4,1.32043 c 8.8e-4,1.54758 0.0364,1.784 0.36705,2.45396 0.46862,0.94936 1.34588,1.63109 2.41183,1.87428 0.42838,0.0977 1.26734,0.0601 1.7025,-0.0763 z m -1.60448,-8.5757 c -0.17753,-0.0718 -0.30955,-0.28722 -0.30955,-0.50525 0,-0.17075 0.1155,-0.40048 0.7787,-1.54895 0.42828,-0.74165 0.7904,-1.37898 0.80471,-1.41627 0.0219,-0.0571 -0.18167,-0.0678 -1.28672,-0.0678 h -1.31274 l -0.1509,-0.13482 c -0.11483,-0.1026 -0.15686,-0.1877 -0.17583,-0.35605 -0.0241,-0.21422 0.004,-0.27392 0.90475,-1.88822 0.51131,-0.91686 0.98804,-1.71597 1.05939,-1.7758 0.15628,-0.13106 0.51212,-0.14876 0.67647,-0.0336 0.13907,0.0974 0.25278,0.31867 0.25278,0.49188 0,0.0845 -0.24115,0.56826 -0.63529,1.27439 -0.34942,0.626 -0.64613,1.16543 -0.65935,1.19875 -0.0188,0.0474 0.23156,0.0607 1.1562,0.0608 0.65549,1.5e-4 1.25966,0.0224 1.35885,0.0498 0.0982,0.0273 0.23686,0.11884 0.30807,0.20347 0.24261,0.28832 0.20529,0.38133 -0.96714,2.41149 -0.57718,0.99941 -1.11438,1.87708 -1.19379,1.95037 -0.15063,0.13903 -0.39245,0.17311 -0.60861,0.0857 z"
       id="path1-1" /></g></svg>
